<svg width="118" height="138" viewBox="0 0 118 138" fill="none" xmlns="http://www.w3.org/2000/svg">
<g clip-path="url(#clip0_23_3372)">
<path fill-rule="evenodd" clip-rule="evenodd" d="M2.13818 128.537C2.31776 128.537 2.46811 128.479 2.58923 128.357C2.71035 128.245 2.76882 128.103 2.76882 127.936C2.76882 127.769 2.71035 127.627 2.58923 127.505C2.46811 127.384 2.32194 127.33 2.13818 127.33C1.95442 127.33 1.80824 127.384 1.68713 127.505C1.57436 127.627 1.51172 127.769 1.51172 127.936C1.51172 128.103 1.57019 128.245 1.68713 128.357C1.80824 128.479 1.95442 128.537 2.13818 128.537Z" fill="#0000FE"/>
<path fill-rule="evenodd" clip-rule="evenodd" d="M3.76711 128.537C3.9467 128.537 4.09705 128.479 4.21816 128.357C4.33092 128.245 4.39357 128.103 4.39357 127.936C4.39357 127.769 4.3351 127.627 4.21816 127.505C4.09705 127.384 3.95087 127.33 3.76711 127.33C3.58335 127.33 3.433 127.384 3.31606 127.505C3.19494 127.627 3.13647 127.769 3.13647 127.936C3.13647 128.103 3.19494 128.245 3.31606 128.357C3.42882 128.479 3.58335 128.537 3.76711 128.537Z" fill="#0000FE"/>
<path fill-rule="evenodd" clip-rule="evenodd" d="M7.78471 127.188C7.96012 127.188 8.1063 127.134 8.23577 127.013C8.36523 126.9 8.4237 126.758 8.4237 126.574C8.4237 126.407 8.36523 126.265 8.23577 126.152C8.1063 126.04 7.96012 125.977 7.78471 125.977C7.60931 125.977 7.45478 126.035 7.32949 126.152C7.20837 126.265 7.1499 126.407 7.1499 126.574C7.1499 126.754 7.20837 126.896 7.32949 127.013C7.45896 127.134 7.60513 127.188 7.78471 127.188Z" fill="#0000FE"/>
<path fill-rule="evenodd" clip-rule="evenodd" d="M6.9746 128.537C7.15419 128.537 7.30454 128.479 7.42566 128.357C7.53842 128.245 7.60106 128.103 7.60106 127.936C7.60106 127.769 7.5426 127.627 7.42566 127.505C7.30454 127.384 7.15837 127.33 6.9746 127.33C6.79084 127.33 6.64467 127.384 6.52355 127.505C6.40244 127.627 6.34814 127.769 6.34814 127.936C6.34814 128.103 6.40244 128.245 6.52355 128.357C6.64467 128.479 6.79084 128.537 6.9746 128.537Z" fill="#0000FE"/>
<path fill-rule="evenodd" clip-rule="evenodd" d="M7.97266 127.931C7.97266 128.099 8.03113 128.241 8.14807 128.353C8.26918 128.474 8.41535 128.533 8.59912 128.533C8.78288 128.533 8.93323 128.474 9.05017 128.353C9.17128 128.241 9.22975 128.099 9.22975 127.931C9.22975 127.764 9.17128 127.622 9.05017 127.501C8.9374 127.38 8.78288 127.326 8.59912 127.326C8.41535 127.326 8.26918 127.38 8.14807 127.501C8.0353 127.622 7.97266 127.764 7.97266 127.931Z" fill="#0000FE"/>
<path fill-rule="evenodd" clip-rule="evenodd" d="M15.4568 129.56H14.2665V132.5H9.16293C8.81211 132.5 8.57823 132.413 8.44458 132.233C8.31094 132.054 8.24412 131.824 8.24412 131.54V129.56H7.05384V131.966C7.05384 132.133 7.02879 132.262 6.97867 132.363C6.92438 132.459 6.82414 132.505 6.66962 132.505H4.9907V131.268C4.9907 130.959 4.94476 130.675 4.84871 130.421C4.75265 130.17 4.61483 129.949 4.43942 129.761C4.26401 129.581 4.05101 129.439 3.80043 129.339C3.54984 129.239 3.28256 129.184 2.98185 129.184C2.65192 129.184 2.35539 129.251 2.07975 129.381C1.81246 129.51 1.57441 129.681 1.38229 129.903C1.186 130.132 1.03983 130.387 0.927066 130.684C0.814303 130.98 0.76001 131.293 0.76001 131.619C0.76001 131.882 0.801774 132.137 0.889478 132.384C0.96883 132.634 1.10247 132.86 1.29041 133.056C1.47835 133.256 1.72058 133.411 2.01711 133.54C2.31363 133.661 2.67698 133.72 3.09879 133.72H6.72391C7.01208 133.72 7.26684 133.653 7.47566 133.519C7.68866 133.39 7.85154 133.223 7.97265 133.022C8.07289 133.198 8.21488 133.352 8.39447 133.499C8.57405 133.645 8.82464 133.72 9.13369 133.72H15.4526V129.56H15.4568ZM3.79625 132.5H3.06956C2.92338 132.5 2.78139 132.488 2.64774 132.446C2.50574 132.404 2.39298 132.346 2.2844 132.258C2.17581 132.171 2.09646 132.058 2.03381 131.924C1.96699 131.79 1.93775 131.623 1.93775 131.427C1.93775 131.264 1.96281 131.11 2.01711 130.984C2.0714 130.851 2.14657 130.734 2.23846 130.642C2.32616 130.546 2.43475 130.475 2.54751 130.421C2.66027 130.375 2.78139 130.345 2.9025 130.345C3.19903 130.345 3.42038 130.454 3.56655 130.663C3.71272 130.876 3.7879 131.181 3.7879 131.577V132.505L3.79625 132.5Z" fill="#0000FE"/>
<path fill-rule="evenodd" clip-rule="evenodd" d="M13.5481 134.422C13.3685 134.422 13.2182 134.48 13.097 134.597C12.9843 134.71 12.9216 134.86 12.9216 135.027C12.9216 135.194 12.9801 135.349 13.097 135.466C13.2182 135.578 13.3643 135.641 13.5481 135.641C13.7319 135.641 13.878 135.583 13.9991 135.466C14.1119 135.353 14.1745 135.203 14.1745 135.027C14.1745 134.852 14.1161 134.71 13.9991 134.597C13.878 134.484 13.7319 134.422 13.5481 134.422Z" fill="#0000FE"/>
<path fill-rule="evenodd" clip-rule="evenodd" d="M15.1687 134.422C14.9891 134.422 14.8388 134.48 14.7176 134.597C14.5965 134.714 14.5422 134.86 14.5422 135.027C14.5422 135.194 14.5965 135.349 14.7176 135.466C14.8388 135.583 14.9849 135.641 15.1687 135.641C15.3525 135.641 15.4986 135.583 15.6197 135.466C15.7325 135.353 15.7952 135.203 15.7952 135.027C15.7952 134.852 15.7367 134.71 15.6197 134.597C15.4986 134.484 15.3525 134.422 15.1687 134.422Z" fill="#0000FE"/>
<path fill-rule="evenodd" clip-rule="evenodd" d="M29.7151 132.5H28.3118C28.1698 132.5 28.057 132.455 27.961 132.358C27.8733 132.258 27.7981 132.137 27.748 131.995C27.6895 131.853 27.6477 131.699 27.6143 131.54C27.5893 131.373 27.56 131.222 27.5475 131.085C27.5266 130.872 27.4807 130.646 27.4139 130.421C27.347 130.199 27.2385 129.99 27.0965 129.802C26.9503 129.615 26.7665 129.46 26.541 129.347C26.3113 129.226 26.0357 129.168 25.7015 129.168C25.5554 129.168 25.4008 129.18 25.238 129.209C25.0751 129.235 24.9164 129.268 24.7619 129.31C24.6073 129.351 24.4653 129.389 24.3317 129.431C24.1897 129.473 24.0853 129.506 24.0018 129.539L24.2899 130.675C24.5029 130.567 24.7201 130.496 24.9414 130.454C25.1544 130.408 25.3298 130.379 25.4718 130.379C25.7141 130.379 25.9104 130.454 26.0649 130.592C26.2111 130.738 26.3071 130.989 26.3405 131.339C26.3656 131.661 26.4074 131.912 26.4617 132.087C26.5159 132.262 26.5702 132.404 26.6287 132.509H21.546C21.2161 132.509 20.9739 132.421 20.8277 132.233C20.6815 132.054 20.6147 131.782 20.6147 131.427C20.6147 131.106 20.5729 130.809 20.5019 130.533C20.4268 130.258 20.314 130.024 20.1469 129.815C19.9799 129.615 19.7585 129.46 19.4745 129.343C19.1989 129.23 18.8564 129.168 18.4555 129.168H17.2193V130.316H18.2133C18.5014 130.316 18.7228 130.35 18.8857 130.425C19.0527 130.492 19.1738 130.592 19.2615 130.725C19.3409 130.867 19.3952 131.043 19.4161 131.248C19.4369 131.461 19.4495 131.703 19.4495 131.987C19.4495 132.166 19.4161 132.296 19.3618 132.384C19.3075 132.463 19.1989 132.505 19.0402 132.505H16.6638V133.72H19.1237C19.4077 133.72 19.6541 133.661 19.8713 133.54C20.0926 133.428 20.2597 133.256 20.3808 133.043C20.481 133.223 20.6314 133.377 20.8193 133.515C21.0073 133.657 21.2495 133.724 21.5377 133.724H26.2988C26.4533 133.724 26.5995 133.699 26.754 133.636C26.9002 133.582 27.038 133.457 27.1633 133.261C27.3053 133.39 27.4807 133.494 27.702 133.59C27.9234 133.678 28.1447 133.724 28.3661 133.724H30.9137V126.248H29.7318V132.509L29.7151 132.5Z" fill="#0000FE"/>
<path d="M33.7911 126.24H32.6091V133.716H33.7911V126.24Z" fill="#0000FE"/>
<path fill-rule="evenodd" clip-rule="evenodd" d="M38.5481 128.537C38.7277 128.537 38.878 128.479 38.9991 128.357C39.1203 128.245 39.1746 128.103 39.1746 127.936C39.1746 127.769 39.1203 127.627 38.9991 127.505C38.878 127.384 38.7319 127.33 38.5481 127.33C38.3643 127.33 38.2182 127.384 38.097 127.505C37.9843 127.627 37.9216 127.769 37.9216 127.936C37.9216 128.103 37.9801 128.245 38.097 128.357C38.2182 128.479 38.3643 128.537 38.5481 128.537Z" fill="#0000FE"/>
<path fill-rule="evenodd" clip-rule="evenodd" d="M40.1809 128.537C40.3605 128.537 40.5109 128.479 40.632 128.357C40.7447 128.245 40.8074 128.103 40.8074 127.936C40.8074 127.769 40.7489 127.627 40.632 127.505C40.5109 127.384 40.3647 127.33 40.1809 127.33C39.9972 127.33 39.8468 127.384 39.7299 127.505C39.6088 127.627 39.5503 127.769 39.5503 127.936C39.5503 128.103 39.6088 128.245 39.7299 128.357C39.8426 128.479 39.9972 128.537 40.1809 128.537Z" fill="#0000FE"/>
<path fill-rule="evenodd" clip-rule="evenodd" d="M43.2508 134.422C43.0712 134.422 42.9166 134.48 42.7997 134.597C42.6786 134.71 42.6201 134.86 42.6201 135.027C42.6201 135.194 42.6786 135.349 42.7997 135.466C42.9125 135.578 43.067 135.641 43.2508 135.641C43.4345 135.641 43.5807 135.583 43.6935 135.466C43.8146 135.353 43.873 135.203 43.873 135.027C43.873 134.852 43.8146 134.71 43.6935 134.597C43.5807 134.484 43.4303 134.422 43.2508 134.422Z" fill="#0000FE"/>
<path fill-rule="evenodd" clip-rule="evenodd" d="M44.867 134.422C44.6874 134.422 44.5329 134.48 44.4159 134.597C44.2948 134.71 44.2363 134.86 44.2363 135.027C44.2363 135.194 44.2948 135.349 44.4159 135.466C44.5287 135.578 44.6832 135.641 44.867 135.641C45.0507 135.641 45.1969 135.583 45.3097 135.466C45.4308 135.353 45.4892 135.203 45.4892 135.027C45.4892 134.852 45.4308 134.71 45.3097 134.597C45.1969 134.484 45.0424 134.422 44.867 134.422Z" fill="#0000FE"/>
<path fill-rule="evenodd" clip-rule="evenodd" d="M47.0972 132.5H45.5728C45.222 132.5 44.9881 132.413 44.8545 132.233C44.7209 132.054 44.654 131.824 44.654 131.54V129.56H43.4638V131.966C43.4638 132.133 43.4387 132.262 43.3886 132.363C43.3343 132.459 43.2341 132.505 43.0795 132.505H41.4006V131.268C41.4006 130.959 41.3547 130.675 41.2586 130.421C41.1626 130.17 41.0247 129.949 40.8493 129.761C40.6739 129.581 40.4609 129.439 40.2103 129.339C39.9639 129.239 39.6925 129.184 39.3918 129.184C39.0618 129.184 38.7653 129.251 38.4897 129.381C38.2224 129.51 37.9843 129.681 37.7922 129.903C37.5959 130.132 37.4497 130.387 37.337 130.684C37.2242 130.98 37.1699 131.293 37.1699 131.619C37.1699 131.882 37.2117 132.137 37.2994 132.384C37.3787 132.634 37.5124 132.86 37.7003 133.056C37.8883 133.256 38.1305 133.411 38.427 133.54C38.7235 133.661 39.0869 133.72 39.5087 133.72H43.1338C43.422 133.72 43.6768 133.653 43.8856 133.519C44.0986 133.39 44.2614 133.223 44.3826 133.023C44.4828 133.198 44.6248 133.352 44.8044 133.499C44.984 133.645 45.2346 133.72 45.5436 133.72H48.2791V126.244H47.0972V132.505V132.5ZM40.2062 132.5H39.4795C39.3333 132.5 39.1913 132.488 39.0577 132.446C38.9157 132.404 38.8029 132.346 38.6943 132.258C38.5857 132.171 38.5064 132.058 38.4437 131.924C38.3769 131.79 38.3477 131.623 38.3477 131.427C38.3477 131.264 38.3727 131.11 38.427 130.984C38.4813 130.851 38.5565 130.734 38.6484 130.642C38.7361 130.546 38.8447 130.475 38.9574 130.421C39.0702 130.375 39.1913 130.345 39.3124 130.345C39.6089 130.345 39.8303 130.454 39.9765 130.663C40.1226 130.876 40.1978 131.181 40.1978 131.577V132.505L40.2062 132.5Z" fill="#0000FE"/>
<path fill-rule="evenodd" clip-rule="evenodd" d="M66.3838 129.56H65.1935V132.5H60.0774C59.76 132.5 59.5261 132.455 59.3674 132.346C59.2046 132.246 59.1336 132.07 59.1336 131.824C59.1336 131.448 59.0793 131.106 58.9707 130.784C58.8705 130.462 58.7159 130.187 58.5196 129.953C58.3192 129.723 58.0686 129.544 57.7721 129.41C57.4755 129.276 57.1414 129.209 56.7572 129.209C56.2686 129.209 55.8217 129.331 55.4207 129.564C55.0198 129.798 54.6899 130.086 54.4393 130.429V126.244H53.2699V132.505H51.1859V126.244H49.9956V133.72H57.5632C57.8806 133.72 58.1479 133.661 58.3818 133.54C58.6157 133.411 58.7911 133.244 58.9039 133.031C59.0041 133.21 59.1377 133.373 59.3132 133.515C59.4886 133.649 59.7308 133.724 60.044 133.724H66.3713V129.564L66.3838 129.56ZM57.8723 132.358C57.8264 132.455 57.7261 132.5 57.5841 132.5H54.4602C54.4852 132.216 54.5604 131.949 54.6899 131.686C54.8193 131.431 54.9781 131.202 55.1743 131.001C55.3706 130.805 55.592 130.65 55.8384 130.538C56.089 130.416 56.3479 130.362 56.6236 130.362C57.0871 130.362 57.4212 130.496 57.6301 130.763C57.8389 131.039 57.9475 131.415 57.9475 131.903C57.9475 132.112 57.9224 132.267 57.8723 132.354V132.358Z" fill="#0000FE"/>
<path fill-rule="evenodd" clip-rule="evenodd" d="M64.4668 134.422C64.2872 134.422 64.1369 134.48 64.0157 134.597C63.903 134.71 63.8403 134.86 63.8403 135.027C63.8403 135.194 63.8988 135.349 64.0157 135.466C64.1369 135.578 64.283 135.641 64.4668 135.641C64.6506 135.641 64.8009 135.583 64.9178 135.466C65.039 135.353 65.0974 135.203 65.0974 135.027C65.0974 134.852 65.039 134.71 64.9178 134.597C64.8051 134.484 64.6506 134.422 64.4668 134.422Z" fill="#0000FE"/>
<path fill-rule="evenodd" clip-rule="evenodd" d="M66.0872 134.422C65.9076 134.422 65.7572 134.48 65.6361 134.597C65.5233 134.71 65.4607 134.86 65.4607 135.027C65.4607 135.194 65.5192 135.349 65.6361 135.466C65.7572 135.578 65.9034 135.641 66.0872 135.641C66.2709 135.641 66.4171 135.583 66.5382 135.466C66.6593 135.353 66.7136 135.203 66.7136 135.027C66.7136 134.852 66.6593 134.71 66.5382 134.597C66.4171 134.484 66.2709 134.422 66.0872 134.422Z" fill="#0000FE"/>
<path fill-rule="evenodd" clip-rule="evenodd" d="M72.1431 132.5H70.8066V128.195H69.6205V132.5H67.478V133.716H73.3333V126.24H72.1431V132.5Z" fill="#0000FE"/>
<path fill-rule="evenodd" clip-rule="evenodd" d="M70.2596 135.779C70.1635 135.691 70.1176 135.599 70.1176 135.491C70.1176 135.37 70.151 135.282 70.2262 135.223C70.293 135.169 70.3807 135.136 70.4893 135.136C70.6104 135.136 70.7399 135.157 70.8568 135.19L70.9529 134.668C70.8777 134.647 70.79 134.626 70.6981 134.614C70.6062 134.601 70.5185 134.593 70.435 134.593C70.1176 134.593 69.8837 134.672 69.7375 134.823C69.583 134.977 69.5037 135.157 69.5037 135.361C69.5037 135.474 69.5287 135.583 69.5788 135.67C69.6331 135.766 69.6791 135.846 69.7417 135.925H69.2698V136.476H71.028V135.925H70.7065C70.506 135.925 70.3556 135.879 70.2638 135.783L70.2596 135.779Z" fill="#0000FE"/>
<path d="M76.2192 126.24H75.0457V133.716H76.2192V126.24Z" fill="#0000FE"/>
<path fill-rule="evenodd" clip-rule="evenodd" d="M82.3334 128.537C82.513 128.537 82.6634 128.479 82.7845 128.357C82.9056 128.245 82.9641 128.103 82.9641 127.936C82.9641 127.769 82.9056 127.627 82.7845 127.505C82.6634 127.384 82.5172 127.33 82.3334 127.33C82.1664 127.33 82.016 127.384 81.8949 127.505C81.7738 127.627 81.7153 127.769 81.7153 127.936C81.7153 128.103 81.7738 128.245 81.8949 128.357C82.016 128.479 82.1622 128.537 82.3334 128.537Z" fill="#0000FE"/>
<path fill-rule="evenodd" clip-rule="evenodd" d="M86.276 132.5H83.6282C83.5196 132.5 83.4319 132.492 83.3609 132.48C83.6115 132.258 83.8036 132.041 83.9581 131.836C84.1126 131.628 84.2254 131.435 84.3131 131.243C84.3925 131.064 84.4551 130.888 84.4802 130.734C84.5136 130.579 84.5261 130.437 84.5261 130.325C84.5261 130.178 84.4843 130.028 84.3925 129.886C84.3048 129.744 84.1711 129.619 83.9915 129.502C83.8161 129.389 83.6031 129.293 83.3484 129.218C83.0936 129.151 82.8054 129.118 82.4755 129.118C82.2875 129.118 82.0871 129.138 81.8657 129.176C81.6527 129.218 81.4272 129.276 81.2059 129.356C80.9762 129.431 80.7632 129.531 80.546 129.644C80.333 129.765 80.1367 129.894 79.9613 130.041L80.0072 130.867C80.0532 130.997 80.1158 131.131 80.1952 131.268C80.2829 131.41 80.3748 131.557 80.4917 131.699C80.6045 131.845 80.7214 131.987 80.8467 132.129C80.9678 132.271 81.0973 132.392 81.21 132.505C81.0221 132.613 80.8342 132.734 80.6379 132.868C80.4499 133.01 80.2745 133.177 80.12 133.365C79.9571 133.561 79.836 133.783 79.7358 134.029C79.6397 134.28 79.5896 134.568 79.5896 134.894C79.5896 135.294 79.6648 135.641 79.8109 135.929C79.9571 136.213 80.1451 136.447 80.3831 136.635C80.6253 136.815 80.8885 136.952 81.1808 137.036C81.4773 137.124 81.778 137.17 82.0746 137.17C82.2207 137.17 82.3711 137.157 82.5298 137.145C82.6843 137.124 82.8305 137.103 82.9725 137.078C83.1145 137.053 83.2356 137.019 83.34 136.99C83.4486 136.957 83.5279 136.923 83.5906 136.894L83.4235 135.812C83.3651 135.833 83.2899 135.854 83.1938 135.879C83.0978 135.9 82.9975 135.925 82.8973 135.946C82.7887 135.967 82.6843 135.988 82.5757 136C82.4671 136.013 82.3753 136.021 82.2876 136.021C81.8031 136.021 81.4397 135.913 81.2059 135.7C80.9636 135.478 80.8425 135.194 80.8425 134.839C80.8425 134.63 80.8759 134.451 80.9511 134.296C81.0263 134.133 81.1265 133.996 81.2518 133.874C81.3729 133.745 81.5191 133.632 81.682 133.54C81.8365 133.44 82.0119 133.352 82.1873 133.265C82.3669 133.365 82.6175 133.461 82.9349 133.561C83.2565 133.661 83.6198 133.707 84.0375 133.707H87.4621V129.548H86.2718V132.488L86.276 132.5ZM83.0309 131.31C82.9307 131.444 82.818 131.573 82.6801 131.699C82.5507 131.82 82.4128 131.928 82.275 132.008C82.1539 131.928 82.0328 131.828 81.9117 131.707C81.7906 131.577 81.6778 131.456 81.5776 131.323C81.469 131.189 81.3771 131.06 81.2894 130.934C81.2017 130.813 81.1349 130.7 81.0889 130.604C81.1641 130.55 81.256 130.508 81.3646 130.462C81.4732 130.421 81.5859 130.387 81.707 130.362C81.8281 130.337 81.9576 130.308 82.0829 130.295C82.2124 130.274 82.3335 130.27 82.4463 130.27C82.5548 130.27 82.6676 130.279 82.7762 130.283C82.889 130.295 82.9892 130.308 83.0769 130.329C83.1729 130.35 83.2398 130.383 83.2899 130.416C83.3442 130.458 83.3692 130.504 83.3692 130.558C83.3692 130.659 83.3358 130.771 83.2732 130.909C83.2147 131.039 83.127 131.172 83.0226 131.31H83.0309Z" fill="#0000FE"/>
<path fill-rule="evenodd" clip-rule="evenodd" d="M86.7061 134.422C86.5307 134.422 86.3845 134.48 86.255 134.597C86.1423 134.71 86.0754 134.86 86.0754 135.027C86.0754 135.194 86.1423 135.349 86.255 135.466C86.3845 135.578 86.5307 135.641 86.7061 135.641C86.8815 135.641 87.0277 135.583 87.1488 135.466C87.2699 135.349 87.3284 135.203 87.3284 135.027C87.3284 134.852 87.2699 134.71 87.1488 134.597C87.0277 134.484 86.8815 134.422 86.7061 134.422Z" fill="#0000FE"/>
<path fill-rule="evenodd" clip-rule="evenodd" d="M113.928 132.5H109.422C109.422 132.5 109.392 132.492 109.376 132.492H109C108.791 132.492 108.632 132.459 108.511 132.396C108.382 132.338 108.298 132.262 108.227 132.175C108.169 132.087 108.127 131.995 108.114 131.899C108.093 131.803 108.089 131.724 108.089 131.657C108.089 130.884 107.91 130.279 107.551 129.857C107.187 129.427 106.669 129.214 105.997 129.214C105.688 129.214 105.404 129.272 105.137 129.389C104.873 129.51 104.648 129.673 104.46 129.873C104.264 130.074 104.118 130.316 104.009 130.6C103.9 130.884 103.846 131.185 103.846 131.519C103.846 131.719 103.825 131.882 103.792 132.008C103.758 132.137 103.712 132.237 103.65 132.308C103.591 132.384 103.52 132.429 103.449 132.45C103.37 132.475 103.295 132.492 103.215 132.492H102.815C102.789 132.492 102.764 132.492 102.744 132.5H99.1184C98.801 132.5 98.5671 132.455 98.4084 132.346C98.2455 132.246 98.1662 132.07 98.1662 131.824C98.1662 131.448 98.1119 131.106 98.0116 130.784C97.9031 130.462 97.7569 130.187 97.5564 129.953C97.3601 129.723 97.1137 129.544 96.8172 129.41C96.5207 129.276 96.1782 129.209 95.7982 129.209C95.3137 129.209 94.871 129.331 94.4617 129.564C94.0608 129.798 93.735 130.086 93.4803 130.429V126.244H92.3109V132.505H90.2352V126.244H89.0449V133.72H96.6167C96.9258 133.72 97.2014 133.661 97.4353 133.54C97.665 133.411 97.8362 133.244 97.9574 133.031C98.0576 133.21 98.1912 133.373 98.3666 133.515C98.5421 133.649 98.7843 133.724 99.0975 133.724H103.282C103.512 133.724 103.712 133.657 103.892 133.524C104.072 133.39 104.214 133.223 104.314 133.018C104.477 133.24 104.69 133.419 104.953 133.561C105.216 133.703 105.546 133.774 105.938 133.774C106.106 133.774 106.268 133.762 106.427 133.749C106.59 133.737 106.745 133.703 106.882 133.649C107.028 133.603 107.17 133.515 107.312 133.407C107.454 133.294 107.588 133.139 107.709 132.943C107.818 133.164 107.977 133.352 108.198 133.499C108.411 133.645 108.67 133.72 108.962 133.72H115.101V126.244H113.92V132.505L113.928 132.5ZM96.9174 132.358C96.8631 132.455 96.7713 132.5 96.6209 132.5H93.497C93.5304 132.216 93.6055 131.949 93.7308 131.686C93.852 131.431 94.0148 131.202 94.207 131.001C94.4032 130.805 94.6246 130.65 94.8793 130.538C95.1299 130.416 95.3889 130.362 95.6603 130.362C96.1323 130.362 96.4664 130.496 96.6752 130.763C96.884 131.039 96.9926 131.415 96.9926 131.903C96.9926 132.112 96.9675 132.267 96.9174 132.354V132.358ZM106.724 132.258C106.569 132.455 106.323 132.555 105.984 132.555C105.646 132.555 105.408 132.455 105.254 132.258C105.091 132.062 105.02 131.816 105.02 131.527C105.02 131.348 105.045 131.185 105.095 131.039C105.149 130.897 105.224 130.771 105.304 130.671C105.391 130.563 105.5 130.483 105.613 130.429C105.734 130.375 105.863 130.35 105.989 130.35C106.114 130.35 106.239 130.375 106.356 130.429C106.469 130.483 106.577 130.563 106.665 130.671C106.744 130.771 106.82 130.901 106.874 131.039C106.932 131.185 106.962 131.348 106.962 131.527C106.962 131.816 106.882 132.066 106.728 132.258H106.724Z" fill="#0000FE"/>
<path d="M118 126.24H116.826V133.716H118V126.24Z" fill="#0000FE"/>
<path d="M18.5892 0H0.104492V38.5106H18.5892V0Z" fill="#FF0000"/>
<path d="M38.5106 0H20.0259V38.5106H38.5106V0Z" fill="#FF0000"/>
<path d="M77.9859 0H40.1895V38.5106H77.9859V0Z" fill="#0000FE"/>
<path d="M118 0H80.2036V38.5106H118V0Z" fill="#FF0000"/>
<path d="M38.5106 40.4693H0V78.9799H38.5106V40.4693Z" fill="#FF0000"/>
<path d="M77.9859 40.4693H40.1895V78.9799H77.9859V40.4693Z" fill="#FF0000"/>
<path d="M118 40.4693H80.2036V78.9799H118V40.4693Z" fill="#FF0000"/>
<path d="M64.8553 0H53.9465V30.0116H64.8553V0Z" fill="white"/>
<path d="M43.3342 35.5412H75.125L65.0432 30.0116H53.9465L43.3342 35.5412Z" fill="white"/>
<path d="M27.2218 22.6778H24.5029V34.5346H27.2218V22.6778Z" fill="white"/>
<path d="M14.0829 22.6778H11.364V34.5346H14.0829V22.6778Z" fill="white"/>
<path d="M111.042 30.0116H87.5581V32.7764H111.042V30.0116Z" fill="white"/>
<path d="M51.2527 58.0561C54.8717 58.0561 57.8055 55.1224 57.8055 51.5034C57.8055 47.8844 54.8717 44.9506 51.2527 44.9506C47.6337 44.9506 44.7 47.8844 44.7 51.5034C44.7 55.1224 47.6337 58.0561 51.2527 58.0561Z" fill="white"/>
<path d="M67.1106 58.0561C70.7296 58.0561 73.6634 55.1224 73.6634 51.5034C73.6634 47.8844 70.7296 44.9506 67.1106 44.9506C63.4916 44.9506 60.5579 47.8844 60.5579 51.5034C60.5579 55.1224 63.4916 58.0561 67.1106 58.0561Z" fill="white"/>
<path d="M51.2527 74.2271C54.8717 74.2271 57.8055 71.2934 57.8055 67.6744C57.8055 64.0554 54.8717 61.1216 51.2527 61.1216C47.6337 61.1216 44.7 64.0554 44.7 67.6744C44.7 71.2934 47.6337 74.2271 51.2527 74.2271Z" fill="white"/>
<path d="M67.1106 74.2271C70.7296 74.2271 73.6634 71.2934 73.6634 67.6744C73.6634 64.0554 70.7296 61.1216 67.1106 61.1216C63.4916 61.1216 60.5579 64.0554 60.5579 67.6744C60.5579 71.2934 63.4916 74.2271 67.1106 74.2271Z" fill="white"/>
<path d="M118 80.7215H0V118.363H118V80.7215Z" fill="#0000FE"/>
<path d="M17.4406 86.1549V102.781H14.5046V86.1549H17.4406Z" fill="white"/>
<path d="M23.7302 90.3397H25.5637V86.8858H28.3953V90.3397H30.7132V92.5866H28.3953V99.4442C28.3953 100.359 28.6166 100.743 29.6482 100.743C29.9614 100.743 30.1494 100.731 30.4668 100.68V102.689C29.8821 102.886 29.0385 102.915 28.5916 102.915C26.3864 102.915 25.5595 102.042 25.5595 99.8118V92.5824H23.7261V90.3355L23.7302 90.3397Z" fill="white"/>
<path d="M46.4791 99.7157C46.4791 100.564 46.5418 101.979 46.6545 102.785H44.132C44.0401 102.397 43.9608 101.67 43.944 101.14C43.4387 102.23 42.2401 103.003 40.3691 103.003C37.3036 103.003 36.2678 101.04 36.2678 99.2104C36.2678 97.0929 37.7045 95.1718 42.0647 95.1718H43.6768V94.1653C43.6768 93.0919 43.3552 92.1606 41.6763 92.1606C40.1101 92.1606 39.6674 92.9291 39.5171 93.9982H36.7523C36.9026 91.9977 38.0887 90.1016 41.7306 90.1016C44.5538 90.1016 46.4749 91.1249 46.4749 94.1235V99.7157H46.4791ZM43.7686 97.0512H42.1023C39.6048 97.0512 39.1412 98.0619 39.1412 98.9974C39.1412 99.9329 39.7259 100.789 41.0749 100.789C43.1923 100.789 43.7686 99.3732 43.7686 97.3101V97.0512Z" fill="white"/>
<path d="M52.7437 102.781L56.4523 85.1735H59.2213L55.5085 102.781H52.7395H52.7437Z" fill="white"/>
<path d="M65.7366 90.3397H68.5056L65.8703 102.781H63.1013L65.7325 90.3397H65.7366ZM66.8141 85.1735H69.5831L68.9775 88.0594H66.2086L66.81 85.1735H66.8141Z" fill="white"/>
<path d="M84.2882 99.7157C84.2882 100.564 84.3509 101.979 84.4636 102.785H81.9411C81.8492 102.397 81.7698 101.67 81.7531 101.14C81.2478 102.23 80.0492 103.003 78.1781 103.003C75.1127 103.003 74.0769 101.04 74.0769 99.2104C74.0769 97.0929 75.5136 95.1718 79.8737 95.1718H81.4858V94.1653C81.4858 93.0919 81.1643 92.1606 79.4853 92.1606C77.9192 92.1606 77.4765 92.9291 77.3261 93.9982H74.5614C74.7117 91.9977 75.8978 90.1016 79.5396 90.1016C82.3629 90.1016 84.284 91.1249 84.284 94.1235V99.7157H84.2882ZM81.5819 97.0512H79.9155C77.418 97.0512 76.9544 98.0619 76.9544 98.9974C76.9544 99.9329 77.5391 100.789 78.8881 100.789C81.0056 100.789 81.5819 99.3732 81.5819 97.3101V97.0512Z" fill="white"/>
<path d="M91.9017 94.2279C91.9017 91.6511 91.8766 90.8868 91.8516 90.3397H94.6372C94.679 90.5652 94.7416 91.5007 94.7375 92.0645C95.247 91.0497 96.4038 90.1016 98.2707 90.1016C100.781 90.1016 102.213 91.6427 102.213 94.6748V102.785H99.3566V95.1968C99.3566 93.6558 98.918 92.4905 97.2684 92.4905C95.6187 92.4905 94.7583 93.6182 94.7583 95.9402V102.785H91.91V94.2321L91.9017 94.2279Z" fill="white"/>
<path d="M14.3082 110.374C14.3082 109.422 14.2999 109.05 14.2874 108.824H15.3983C15.4192 108.983 15.4317 109.275 15.4359 109.455C15.6864 109.046 16.125 108.728 16.8266 108.728C17.5282 108.728 17.9041 109.054 18.0837 109.534C18.305 109.117 18.8271 108.728 19.5747 108.728C20.3932 108.728 21.1366 109.159 21.1366 110.457V113.824H20.0132V110.645C20.0132 110.144 19.842 109.681 19.2322 109.681C18.5682 109.681 18.2967 110.186 18.2967 110.95V113.824H17.1732V110.608C17.1732 110.102 16.9477 109.689 16.3923 109.689C15.7783 109.689 15.44 110.102 15.44 111.021V113.828H14.3082V110.382V110.374Z" fill="white"/>
<path d="M28.5164 111.247C28.5164 112.7 27.8398 113.911 26.1776 113.911C24.5154 113.911 23.8889 112.633 23.8889 111.276C23.8889 110.006 24.5989 108.728 26.2444 108.728C27.7897 108.728 28.5205 109.869 28.5205 111.251L28.5164 111.247ZM25.0541 111.247C25.0541 112.341 25.4551 112.997 26.2235 112.997C26.992 112.997 27.3512 112.349 27.3512 111.251C27.3512 110.228 26.9711 109.635 26.1901 109.635C25.4509 109.635 25.05 110.274 25.05 111.247H25.0541Z" fill="white"/>
<path d="M35.4492 106.745V112.454C35.4492 113.001 35.4576 113.519 35.4701 113.815H34.3508C34.3341 113.682 34.3091 113.381 34.3091 113.176C34.0626 113.661 33.6784 113.911 32.8765 113.911C31.5944 113.911 30.9429 112.855 30.9429 111.33C30.9429 109.806 31.728 108.724 33.077 108.724C33.8413 108.724 34.1838 109.004 34.3007 109.225V106.745H35.445H35.4492ZM32.1164 111.289C32.1164 112.316 32.5007 112.972 33.2357 112.972C34.1671 112.972 34.3508 112.312 34.3508 111.272C34.3508 110.094 34.0752 109.676 33.2817 109.676C32.5717 109.676 32.1164 110.228 32.1164 111.293V111.289Z" fill="white"/>
<path d="M39.3834 111.568C39.3834 112.312 39.68 112.997 40.4693 112.997C41.1333 112.997 41.3422 112.562 41.4215 112.328H42.545C42.3278 113.089 41.7765 113.911 40.4317 113.911C38.8447 113.911 38.2266 112.775 38.2266 111.322C38.2266 110.086 38.8405 108.728 40.4818 108.728C42.1231 108.728 42.6118 109.935 42.6118 111.176C42.6118 111.23 42.6034 111.514 42.5993 111.573H39.3834V111.568ZM41.4883 110.8C41.4674 110.14 41.2002 109.601 40.4609 109.601C39.634 109.601 39.4335 110.303 39.4001 110.8H41.4883Z" fill="white"/>
<path d="M45.3473 110.516C45.3473 109.701 45.3473 109.133 45.3264 108.82H46.4457C46.4666 109.042 46.4749 109.363 46.4749 109.743C46.667 109.259 47.1431 108.745 48.0244 108.737V109.902C46.9636 109.902 46.4916 110.357 46.4916 111.481V113.815H45.3473V110.512V110.516Z" fill="white"/>
<path d="M50.5219 110.382C50.5219 109.346 50.5135 109.042 50.501 108.82H51.6203C51.637 108.912 51.662 109.288 51.662 109.514C51.8667 109.104 52.3302 108.724 53.082 108.724C54.0885 108.724 54.6648 109.342 54.6648 110.562V113.819H53.5163V110.771C53.5163 110.153 53.3409 109.685 52.6769 109.685C52.0128 109.685 51.6704 110.14 51.6704 111.071V113.819H50.526V110.382H50.5219Z" fill="white"/>
<path d="M62.9549 110.988C63.3475 110.516 64.1201 109.572 64.7048 108.82H66.012C65.5025 109.422 64.876 110.111 64.3289 110.75C64.9053 111.669 65.5902 112.834 66.1749 113.815H64.851C64.496 113.176 63.9489 112.191 63.5688 111.514C63.5062 111.581 63.0175 112.099 62.9549 112.166V113.819H61.8105V106.745H62.9549V110.988Z" fill="white"/>
<path d="M68.4595 106.745H69.6038V107.901H68.4595V106.745ZM68.4595 108.82H69.6038V113.819H68.4595V108.82Z" fill="white"/>
<path d="M72.0679 108.82H72.8029V107.434H73.9431V108.82H74.8702V109.722H73.9431V112.479C73.9431 112.846 74.0308 113.001 74.4442 113.001C74.5695 113.001 74.6447 112.997 74.7742 112.976V113.782C74.5403 113.861 74.202 113.874 74.0224 113.874C73.137 113.874 72.8029 113.523 72.8029 112.629V109.727H72.0679V108.824V108.82Z" fill="white"/>
<path d="M81.3853 112.124C81.2183 113.118 80.596 113.911 79.2637 113.911C77.7769 113.911 77.0627 112.967 77.0627 111.322C77.0627 109.789 77.8897 108.724 79.3347 108.724C80.8674 108.724 81.3436 109.81 81.3853 110.549H80.241C80.1742 110.061 79.9319 109.614 79.3138 109.614C78.5495 109.614 78.2321 110.303 78.2321 111.28C78.2321 112.487 78.6205 113.022 79.2929 113.022C79.9027 113.022 80.1199 112.633 80.2535 112.12H81.3895L81.3853 112.124Z" fill="white"/>
<path d="M85.2027 106.745V109.463C85.4408 109.029 85.9002 108.724 86.6227 108.724C87.4621 108.724 88.1972 109.179 88.1972 110.528V113.819H87.0654V110.712C87.0654 110.098 86.8482 109.685 86.1967 109.685C85.5076 109.685 85.1985 110.148 85.1985 111.017V113.824H84.0542V106.749H85.1985L85.2027 106.745Z" fill="white"/>
<path d="M92.1063 111.568C92.1063 112.312 92.4028 112.997 93.1922 112.997C93.8562 112.997 94.0651 112.562 94.1444 112.328H95.2679C95.0507 113.089 94.4994 113.911 93.1546 113.911C91.5717 113.911 90.9495 112.775 90.9495 111.322C90.9495 110.086 91.5634 108.728 93.2047 108.728C94.846 108.728 95.3347 109.935 95.3347 111.176C95.3347 111.23 95.3263 111.514 95.3222 111.573H92.1105L92.1063 111.568ZM94.2112 110.8C94.1903 110.14 93.9231 109.601 93.1838 109.601C92.3569 109.601 92.1523 110.303 92.123 110.8H94.2112Z" fill="white"/>
<path d="M98.0702 110.382C98.0702 109.346 98.0618 109.042 98.0493 108.82H99.1686C99.1853 108.912 99.2104 109.288 99.2104 109.514C99.415 109.104 99.8786 108.724 100.63 108.724C101.637 108.724 102.213 109.342 102.213 110.562V113.819H101.065V110.771C101.065 110.153 100.889 109.685 100.225 109.685C99.5612 109.685 99.2187 110.14 99.2187 111.071V113.819H98.0744V110.382H98.0702Z" fill="white"/>
</g>
<defs>
<clipPath id="clip0_23_3372">
<rect width="118" height="137.182" fill="white"/>
</clipPath>
</defs>
</svg>
